<mxfile host="app.diagrams.net" agent="Mozilla/5.0 (Windows NT 10.0; Win64; x64) AppleWebKit/537.36 (KHTML, like Gecko) Chrome/131.0.0.0 Safari/537.36" version="26.0.4">
  <diagram id="C5RBs43oDa-KdzZeNtuy" name="Page-1">
    <mxGraphModel dx="1902" dy="442" grid="1" gridSize="10" guides="1" tooltips="1" connect="1" arrows="1" fold="1" page="1" pageScale="1" pageWidth="827" pageHeight="1169" math="0" shadow="0">
      <root>
        <mxCell id="WIyWlLk6GJQsqaUBKTNV-0" />
        <mxCell id="WIyWlLk6GJQsqaUBKTNV-1" parent="WIyWlLk6GJQsqaUBKTNV-0" />
        <mxCell id="jBHrH4n0kOTjQooyitoU-2" style="edgeStyle=orthogonalEdgeStyle;rounded=0;orthogonalLoop=1;jettySize=auto;html=1;exitX=0.5;exitY=1;exitDx=0;exitDy=0;exitPerimeter=0;" edge="1" parent="WIyWlLk6GJQsqaUBKTNV-1" source="jBHrH4n0kOTjQooyitoU-0" target="jBHrH4n0kOTjQooyitoU-1">
          <mxGeometry relative="1" as="geometry" />
        </mxCell>
        <mxCell id="jBHrH4n0kOTjQooyitoU-0" value="START" style="strokeWidth=2;html=1;shape=mxgraph.flowchart.start_1;whiteSpace=wrap;" vertex="1" parent="WIyWlLk6GJQsqaUBKTNV-1">
          <mxGeometry x="340" y="30" width="100" height="60" as="geometry" />
        </mxCell>
        <mxCell id="jBHrH4n0kOTjQooyitoU-4" style="edgeStyle=orthogonalEdgeStyle;rounded=0;orthogonalLoop=1;jettySize=auto;html=1;exitX=0.5;exitY=1;exitDx=0;exitDy=0;entryX=0.5;entryY=0;entryDx=0;entryDy=0;" edge="1" parent="WIyWlLk6GJQsqaUBKTNV-1" source="jBHrH4n0kOTjQooyitoU-1" target="jBHrH4n0kOTjQooyitoU-3">
          <mxGeometry relative="1" as="geometry" />
        </mxCell>
        <mxCell id="jBHrH4n0kOTjQooyitoU-1" value="Read Seconds" style="shape=parallelogram;html=1;strokeWidth=2;perimeter=parallelogramPerimeter;whiteSpace=wrap;rounded=1;arcSize=12;size=0.23;" vertex="1" parent="WIyWlLk6GJQsqaUBKTNV-1">
          <mxGeometry x="250" y="150" width="280" height="90" as="geometry" />
        </mxCell>
        <mxCell id="jBHrH4n0kOTjQooyitoU-8" style="edgeStyle=orthogonalEdgeStyle;rounded=0;orthogonalLoop=1;jettySize=auto;html=1;exitX=0.5;exitY=1;exitDx=0;exitDy=0;entryX=0.5;entryY=0;entryDx=0;entryDy=0;" edge="1" parent="WIyWlLk6GJQsqaUBKTNV-1" source="jBHrH4n0kOTjQooyitoU-3" target="jBHrH4n0kOTjQooyitoU-5">
          <mxGeometry relative="1" as="geometry" />
        </mxCell>
        <mxCell id="jBHrH4n0kOTjQooyitoU-3" value="SecondsPerDay = 24 * 60 *60&lt;div&gt;SecondsPerHour = 60 *60&lt;/div&gt;&lt;div&gt;SecondsPerMinute = 60&lt;/div&gt;&lt;div&gt;&lt;br&gt;&lt;/div&gt;&lt;div&gt;&lt;b&gt;NumberOfDays&lt;/b&gt; = Floor (Seconds / SecondsPerDay)&lt;/div&gt;&lt;div&gt;Remainder = Seconds Mod SecondsPerDay&lt;/div&gt;&lt;div&gt;&lt;b&gt;NumberOfHours&lt;/b&gt; = Floor (Remainder / SecondsPerHours)&lt;/div&gt;&lt;div&gt;Remainder = Remainder Mod SecondsPerHour&lt;/div&gt;&lt;div&gt;&lt;b&gt;NumberOfMinutes&lt;/b&gt; = Floor (Remainder / SecondsPerMinute)&lt;/div&gt;&lt;div&gt;Remainder = Remainder Mod SecondsPerMinute&lt;/div&gt;&lt;div&gt;&lt;b&gt;NumberOfSeconds&lt;/b&gt; = Remainder&lt;/div&gt;" style="rounded=1;whiteSpace=wrap;html=1;absoluteArcSize=1;arcSize=14;strokeWidth=2;" vertex="1" parent="WIyWlLk6GJQsqaUBKTNV-1">
          <mxGeometry x="135" y="290" width="510" height="350" as="geometry" />
        </mxCell>
        <mxCell id="jBHrH4n0kOTjQooyitoU-5" value="Print NumberOfDays + &quot; : &quot; + NumberOfHours + &quot; : &quot; + NumberOfMinutes + &quot; : &quot; +NumberOfSeconds" style="shape=parallelogram;html=1;strokeWidth=2;perimeter=parallelogramPerimeter;whiteSpace=wrap;rounded=1;arcSize=12;size=0.23;" vertex="1" parent="WIyWlLk6GJQsqaUBKTNV-1">
          <mxGeometry x="-62.5" y="730" width="905" height="120" as="geometry" />
        </mxCell>
        <mxCell id="jBHrH4n0kOTjQooyitoU-6" value="END" style="strokeWidth=2;html=1;shape=mxgraph.flowchart.terminator;whiteSpace=wrap;" vertex="1" parent="WIyWlLk6GJQsqaUBKTNV-1">
          <mxGeometry x="340" y="900" width="100" height="60" as="geometry" />
        </mxCell>
        <mxCell id="jBHrH4n0kOTjQooyitoU-7" style="edgeStyle=orthogonalEdgeStyle;rounded=0;orthogonalLoop=1;jettySize=auto;html=1;exitX=0.5;exitY=1;exitDx=0;exitDy=0;entryX=0.5;entryY=0;entryDx=0;entryDy=0;entryPerimeter=0;" edge="1" parent="WIyWlLk6GJQsqaUBKTNV-1" source="jBHrH4n0kOTjQooyitoU-5" target="jBHrH4n0kOTjQooyitoU-6">
          <mxGeometry relative="1" as="geometry" />
        </mxCell>
      </root>
    </mxGraphModel>
  </diagram>
</mxfile>
